<?xml version="1.0" encoding="utf-8"?>
<!-- Generator: Adobe Illustrator 24.2.0, SVG Export Plug-In . SVG Version: 6.00 Build 0)  -->
<svg version="1.1" id="Camada_1" xmlns="http://www.w3.org/2000/svg" xmlns:xlink="http://www.w3.org/1999/xlink" x="0px" y="0px"
	 viewBox="0 0 47.3 47.3" style="enable-background:new 0 0 47.3 47.3;" xml:space="preserve">
<style type="text/css">
	.st0{fill:#FFFFFF;}
	.st1{fill:none;}
</style>
<path class="st0" d="M24.8,39c-4.6,0-8.5-1.6-11.7-4.8s-4.8-7-4.8-11.6s1.6-8.4,4.8-11.6s7-4.8,11.6-4.8c0.3,0,0.5,0,0.8,0
	c0.3,0,0.6,0,1,0.1c-1.1,1-1.9,2.2-2.6,3.7c-0.6,1.5-0.9,2.9-0.9,4.5c0,2.7,0.9,5.1,2.8,6.9s4.2,2.8,6.9,2.8c1.6,0,3.1-0.3,4.6-0.8
	c1.5-0.5,2.7-1.4,3.7-2.4c0,0.4,0.1,0.6,0.1,0.9s0,0.5,0,0.6c0,4.6-1.6,8.5-4.8,11.7S29.3,39,24.8,39z M24.8,36.3
	c3.3,0,6.2-1,8.7-3.1c2.5-2.1,4-4.5,4.6-7.2c-0.7,0.4-1.6,0.5-2.5,0.7c-0.9,0.2-1.7,0.3-2.7,0.3c-3.5,0-6.5-1.2-9-3.7
	s-3.7-5.4-3.7-9c0-0.7,0.1-1.6,0.3-2.4c0.2-0.8,0.5-1.8,0.8-2.8c-3,0.8-5.5,2.5-7.4,5S11,19.5,11,22.6c0,3.8,1.4,7,4,9.7
	S20.9,36.3,24.8,36.3z"/>
<rect y="0" class="st1" width="47.3" height="47.3"/>
</svg>
