<?xml version="1.0" encoding="utf-8"?>
<!-- Generator: Adobe Illustrator 26.0.3, SVG Export Plug-In . SVG Version: 6.00 Build 0)  -->
<svg version="1.1" id="Camada_1" xmlns="http://www.w3.org/2000/svg" xmlns:xlink="http://www.w3.org/1999/xlink" x="0px" y="0px"
	 viewBox="0 0 47.3 47.3" style="enable-background:new 0 0 47.3 47.3;" xml:space="preserve">
<style type="text/css">
	.st0{fill:none;stroke:#8B8A8A;stroke-width:1.4983;stroke-linecap:round;stroke-linejoin:round;stroke-miterlimit:10;}
	.st1{fill:none;stroke:#8B8A8A;stroke-width:1.3313;stroke-linecap:round;stroke-linejoin:round;stroke-miterlimit:10;}
</style>
<g>
	<circle class="st0" cx="23.7" cy="23.7" r="13.6"/>
	<path class="st0" d="M15.5,22.7c0,0,0.6-6.8,7.1-7"/>
	<g>
		<line class="st1" x1="23.6" y1="1.8" x2="23.6" y2="6.3"/>
		<line class="st1" x1="23.6" y1="41" x2="23.6" y2="45.5"/>
		<line class="st1" x1="45.5" y1="23.7" x2="41" y2="23.7"/>
		<line class="st1" x1="6.3" y1="23.6" x2="1.8" y2="23.6"/>
	</g>
	<g>
		<line class="st1" x1="34.4" y1="4.7" x2="32.2" y2="8.6"/>
		<line class="st1" x1="15.1" y1="38.7" x2="12.9" y2="42.6"/>
		<line class="st1" x1="42.6" y1="34.4" x2="38.7" y2="32.2"/>
		<line class="st1" x1="8.6" y1="15.1" x2="4.7" y2="12.9"/>
	</g>
	<g>
		<line class="st1" x1="12.7" y1="4.8" x2="14.9" y2="8.7"/>
		<line class="st1" x1="32.4" y1="38.6" x2="34.6" y2="42.5"/>
		<line class="st1" x1="42.5" y1="12.7" x2="38.6" y2="14.9"/>
		<line class="st1" x1="8.7" y1="32.4" x2="4.8" y2="34.6"/>
	</g>
</g>
</svg>
